<svg xmlns="http://www.w3.org/2000/svg" version="1.1" xmlns:xlink="http://www.w3.org/1999/xlink" xmlns:svgjs="http://svgjs.dev/svgjs" width="1500" height="1500" viewBox="0 0 1500 1500"><rect width="1500" height="1500" fill="#eae5df"></rect><g transform="matrix(0.6666666666666666,0,0,0.6666666666666666,249.39393939393938,438.58569500674764)"><svg viewBox="0 0 396 247" data-background-color="#eae5df" preserveAspectRatio="xMidYMid meet" height="935" width="1500" xmlns="http://www.w3.org/2000/svg" xmlns:xlink="http://www.w3.org/1999/xlink"><g id="tight-bounds" transform="matrix(1,0,0,1,0.2400000000000091,-0.09999999999999432)"><svg viewBox="0 0 395.52 247.2" height="247.2" width="395.52"><g><svg></svg></g><g><svg viewBox="0 0 395.52 247.2" height="247.2" width="395.52"><g transform="matrix(1,0,0,1,78.81422221048591,47.215199999999996)"><svg viewBox="0 0 237.89155557902816 152.7696" height="152.7696" width="237.89155557902816"><g><svg viewBox="0 0 244.43135999999998 156.9693426223824" height="152.7696" width="237.89155557902816"><g transform="matrix(1,0,0,1,0,114.9314029543286)"><svg viewBox="0 0 244.43135999999998 42.03793966805381" height="42.03793966805381" width="244.43135999999998"><g id="textblocktransform"><svg viewBox="0 0 244.43135999999998 42.03793966805381" height="42.03793966805381" width="244.43135999999998" id="textblock"><g><rect width="46.68638976" height="2.5261370958014573" y="37.06828598377459" fill="#dfa6b4" data-fill-palette-color="tertiary"></rect><rect width="46.68638976" height="2.5261370958014573" y="37.06828598377459" x="197.74497024" fill="#dfa6b4" data-fill-palette-color="tertiary"></rect></g><g><svg viewBox="0 0 244.43135999999998 28.01184506073802" height="28.01184506073802" width="244.43135999999998"><g transform="matrix(1,0,0,1,0,0)"><svg width="244.43135999999998" viewBox="4.25 -38 436.26 50" height="28.01184506073802" data-palette-color="#e50404"><path d="M33.65-27.3L33.65-27.3Q38.2-27.3 40.45-24.98 42.7-22.65 42.7-17.45L42.7-17.45 42.7 0 38.35 0 38.35-17.25Q38.35-23.6 32.9-23.6L32.9-23.6Q29-23.6 27.33-21.35 25.65-19.1 25.65-14.8L25.65-14.8 25.65 0 21.3 0 21.3-17.25Q21.3-23.6 15.8-23.6L15.8-23.6Q11.75-23.6 10.2-21.1 8.65-18.6 8.65-13.9L8.65-13.9 8.65 0 4.25 0 4.25-26.8 7.8-26.8 8.45-23.15 8.7-23.15Q9.95-25.25 12.08-26.28 14.2-27.3 16.6-27.3L16.6-27.3Q22.9-27.3 24.8-22.8L24.8-22.8 25.05-22.8Q26.4-25.1 28.73-26.2 31.05-27.3 33.65-27.3ZM57.6 0.1L46.8-26.8 51.5-26.8 57.3-11.55Q58.05-9.55 58.65-7.73 59.25-5.9 59.55-4.25L59.55-4.25 59.75-4.25Q60.05-5.5 60.7-7.53 61.35-9.55 62.05-11.6L62.05-11.6 67.5-26.8 72.25-26.8 60.7 3.7Q59.3 7.5 57.07 9.75 54.85 12 50.95 12L50.95 12Q49.75 12 48.85 11.88 47.95 11.75 47.3 11.6L47.3 11.6 47.3 8.1Q47.85 8.2 48.62 8.3 49.4 8.4 50.25 8.4L50.25 8.4Q52.55 8.4 53.97 7.1 55.4 5.8 56.2 3.65L56.2 3.65 57.6 0.1ZM93.95-7.4L93.95-7.4Q93.95-3.5 91.05-1.5 88.15 0.5 83.25 0.5L83.25 0.5Q80.45 0.5 78.42 0.05 76.4-0.4 74.84-1.2L74.84-1.2 74.84-5.2Q76.45-4.4 78.72-3.73 81-3.05 83.34-3.05L83.34-3.05Q86.7-3.05 88.2-4.13 89.7-5.2 89.7-7L89.7-7Q89.7-8 89.15-8.8 88.59-9.6 87.17-10.4 85.75-11.2 83.09-12.2L83.09-12.2Q80.5-13.2 78.65-14.2 76.8-15.2 75.8-16.6 74.8-18 74.8-20.2L74.8-20.2Q74.8-23.6 77.57-25.45 80.34-27.3 84.84-27.3L84.84-27.3Q87.3-27.3 89.42-26.83 91.55-26.35 93.4-25.5L93.4-25.5 91.9-22Q90.2-22.7 88.34-23.2 86.5-23.7 84.55-23.7L84.55-23.7Q81.84-23.7 80.42-22.83 79-21.95 79-20.45L79-20.45Q79-19.35 79.65-18.57 80.3-17.8 81.82-17.07 83.34-16.35 85.9-15.35L85.9-15.35Q88.45-14.4 90.25-13.4 92.05-12.4 93-10.98 93.95-9.55 93.95-7.4ZM109.39-3.1L109.39-3.1Q110.39-3.1 111.44-3.28 112.49-3.45 113.14-3.65L113.14-3.65 113.14-0.3Q112.44 0.05 111.14 0.28 109.84 0.5 108.64 0.5L108.64 0.5Q106.54 0.5 104.77-0.23 102.99-0.95 101.89-2.75 100.79-4.55 100.79-7.8L100.79-7.8 100.79-23.4 96.99-23.4 96.99-25.5 100.84-27.25 102.59-32.95 105.19-32.95 105.19-26.8 112.94-26.8 112.94-23.4 105.19-23.4 105.19-7.9Q105.19-5.45 106.37-4.28 107.54-3.1 109.39-3.1ZM120.74-36.85L120.74-36.85Q121.74-36.85 122.52-36.18 123.29-35.5 123.29-34.05L123.29-34.05Q123.29-32.65 122.52-31.95 121.74-31.25 120.74-31.25L120.74-31.25Q119.64-31.25 118.89-31.95 118.14-32.65 118.14-34.05L118.14-34.05Q118.14-35.5 118.89-36.18 119.64-36.85 120.74-36.85ZM118.49-26.8L122.89-26.8 122.89 0 118.49 0 118.49-26.8ZM142.14 0.5L142.14 0.5Q138.59 0.5 135.81-0.95 133.04-2.4 131.46-5.45 129.89-8.5 129.89-13.25L129.89-13.25Q129.89-18.2 131.54-21.3 133.19-24.4 136.01-25.85 138.84-27.3 142.44-27.3L142.44-27.3Q144.49-27.3 146.39-26.88 148.29-26.45 149.49-25.85L149.49-25.85 148.14-22.2Q146.94-22.65 145.34-23.05 143.74-23.45 142.34-23.45L142.34-23.45Q134.44-23.45 134.44-13.3L134.44-13.3Q134.44-8.45 136.36-5.88 138.29-3.3 142.09-3.3L142.09-3.3Q144.29-3.3 145.96-3.75 147.64-4.2 149.04-4.85L149.04-4.85 149.04-0.95Q147.69-0.25 146.06 0.13 144.44 0.5 142.14 0.5ZM191.68-13.45L191.68-13.45Q191.68-6.8 188.31-3.15 184.93 0.5 179.18 0.5L179.18 0.5Q175.63 0.5 172.86-1.13 170.08-2.75 168.48-5.88 166.88-9 166.88-13.45L166.88-13.45Q166.88-20.1 170.23-23.7 173.58-27.3 179.33-27.3L179.33-27.3Q182.98-27.3 185.76-25.68 188.53-24.05 190.11-20.98 191.68-17.9 191.68-13.45ZM171.43-13.45L171.43-13.45Q171.43-8.7 173.31-5.93 175.18-3.15 179.28-3.15L179.28-3.15Q183.33-3.15 185.23-5.93 187.13-8.7 187.13-13.45L187.13-13.45Q187.13-18.2 185.23-20.9 183.33-23.6 179.23-23.6L179.23-23.6Q175.13-23.6 173.28-20.9 171.43-18.2 171.43-13.45ZM209.38 0.5L209.38 0.5Q205.83 0.5 203.06-0.95 200.28-2.4 198.71-5.45 197.13-8.5 197.13-13.25L197.13-13.25Q197.13-18.2 198.78-21.3 200.43-24.4 203.26-25.85 206.08-27.3 209.68-27.3L209.68-27.3Q211.73-27.3 213.63-26.88 215.53-26.45 216.73-25.85L216.73-25.85 215.38-22.2Q214.18-22.65 212.58-23.05 210.98-23.45 209.58-23.45L209.58-23.45Q201.68-23.45 201.68-13.3L201.68-13.3Q201.68-8.45 203.61-5.88 205.53-3.3 209.33-3.3L209.33-3.3Q211.53-3.3 213.21-3.75 214.88-4.2 216.28-4.85L216.28-4.85 216.28-0.95Q214.93-0.25 213.31 0.13 211.68 0.5 209.38 0.5ZM232.98-27.3L232.98-27.3Q236.43-27.3 238.9-25.8 241.38-24.3 242.7-21.58 244.03-18.85 244.03-15.2L244.03-15.2 244.03-12.55 225.68-12.55Q225.78-8 228-5.63 230.23-3.25 234.23-3.25L234.23-3.25Q236.78-3.25 238.75-3.73 240.73-4.2 242.83-5.1L242.83-5.1 242.83-1.25Q240.78-0.35 238.78 0.08 236.78 0.5 234.03 0.5L234.03 0.5Q230.23 0.5 227.3-1.05 224.38-2.6 222.75-5.68 221.13-8.75 221.13-13.2L221.13-13.2Q221.13-17.6 222.6-20.75 224.08-23.9 226.75-25.6 229.43-27.3 232.98-27.3ZM232.93-23.7L232.93-23.7Q229.78-23.7 227.95-21.68 226.13-19.65 225.78-16.05L225.78-16.05 239.43-16.05Q239.38-19.45 237.83-21.58 236.28-23.7 232.93-23.7ZM260.98-27.25L260.98-27.25Q265.88-27.25 268.23-25.1 270.58-22.95 270.58-18.25L270.58-18.25 270.58 0 267.38 0 266.53-3.8 266.33-3.8Q264.58-1.6 262.65-0.55 260.73 0.5 257.33 0.5L257.33 0.5Q253.68 0.5 251.28-1.43 248.88-3.35 248.88-7.45L248.88-7.45Q248.88-11.45 252.03-13.63 255.18-15.8 261.73-16L261.73-16 266.28-16.15 266.28-17.75Q266.28-21.1 264.83-22.4 263.38-23.7 260.73-23.7L260.73-23.7Q258.63-23.7 256.73-23.08 254.83-22.45 253.18-21.65L253.18-21.65 251.83-24.95Q253.58-25.9 255.98-26.58 258.38-27.25 260.98-27.25ZM266.23-13.1L262.28-12.95Q257.28-12.75 255.35-11.35 253.43-9.95 253.43-7.4L253.43-7.4Q253.43-5.15 254.8-4.1 256.18-3.05 258.33-3.05L258.33-3.05Q261.73-3.05 263.98-4.93 266.23-6.8 266.23-10.7L266.23-10.7 266.23-13.1ZM291.77-27.3L291.77-27.3Q296.57-27.3 299.02-24.98 301.47-22.65 301.47-17.45L301.47-17.45 301.47 0 297.12 0 297.12-17.15Q297.12-23.6 291.12-23.6L291.12-23.6Q286.67-23.6 284.97-21.1 283.27-18.6 283.27-13.9L283.27-13.9 283.27 0 278.87 0 278.87-26.8 282.42-26.8 283.07-23.15 283.32-23.15Q284.62-25.25 286.92-26.28 289.22-27.3 291.77-27.3ZM340.22-7.4L340.22-7.4Q340.22-3.5 337.32-1.5 334.42 0.5 329.52 0.5L329.52 0.5Q326.72 0.5 324.69 0.05 322.67-0.4 321.12-1.2L321.12-1.2 321.12-5.2Q322.72-4.4 324.99-3.73 327.27-3.05 329.62-3.05L329.62-3.05Q332.97-3.05 334.47-4.13 335.97-5.2 335.97-7L335.97-7Q335.97-8 335.42-8.8 334.87-9.6 333.44-10.4 332.02-11.2 329.37-12.2L329.37-12.2Q326.77-13.2 324.92-14.2 323.07-15.2 322.07-16.6 321.07-18 321.07-20.2L321.07-20.2Q321.07-23.6 323.84-25.45 326.62-27.3 331.12-27.3L331.12-27.3Q333.57-27.3 335.69-26.83 337.82-26.35 339.67-25.5L339.67-25.5 338.17-22Q336.47-22.7 334.62-23.2 332.77-23.7 330.82-23.7L330.82-23.7Q328.12-23.7 326.69-22.83 325.27-21.95 325.27-20.45L325.27-20.45Q325.27-19.35 325.92-18.57 326.57-17.8 328.09-17.07 329.62-16.35 332.17-15.35L332.17-15.35Q334.72-14.4 336.52-13.4 338.32-12.4 339.27-10.98 340.22-9.55 340.22-7.4ZM356.87-27.25L356.87-27.25Q361.77-27.25 364.12-25.1 366.47-22.95 366.47-18.25L366.47-18.25 366.47 0 363.27 0 362.42-3.8 362.22-3.8Q360.47-1.6 358.54-0.55 356.62 0.5 353.22 0.5L353.22 0.5Q349.57 0.5 347.17-1.43 344.77-3.35 344.77-7.45L344.77-7.45Q344.77-11.45 347.92-13.63 351.07-15.8 357.62-16L357.62-16 362.17-16.15 362.17-17.75Q362.17-21.1 360.72-22.4 359.27-23.7 356.62-23.7L356.62-23.7Q354.52-23.7 352.62-23.08 350.72-22.45 349.07-21.65L349.07-21.65 347.72-24.95Q349.47-25.9 351.87-26.58 354.27-27.25 356.87-27.25ZM362.12-13.1L358.17-12.95Q353.17-12.75 351.24-11.35 349.32-9.95 349.32-7.4L349.32-7.4Q349.32-5.15 350.69-4.1 352.07-3.05 354.22-3.05L354.22-3.05Q357.62-3.05 359.87-4.93 362.12-6.8 362.12-10.7L362.12-10.7 362.12-13.1ZM379.16-38L379.16 0 374.76 0 374.76-38 379.16-38ZM410.96-13.45L410.96-13.45Q410.96-6.8 407.59-3.15 404.21 0.5 398.46 0.5L398.46 0.5Q394.91 0.5 392.14-1.13 389.36-2.75 387.76-5.88 386.16-9 386.16-13.45L386.16-13.45Q386.16-20.1 389.51-23.7 392.86-27.3 398.61-27.3L398.61-27.3Q402.26-27.3 405.04-25.68 407.81-24.05 409.39-20.98 410.96-17.9 410.96-13.45ZM390.71-13.45L390.71-13.45Q390.71-8.7 392.59-5.93 394.46-3.15 398.56-3.15L398.56-3.15Q402.61-3.15 404.51-5.93 406.41-8.7 406.41-13.45L406.41-13.45Q406.41-18.2 404.51-20.9 402.61-23.6 398.51-23.6L398.51-23.6Q394.41-23.6 392.56-20.9 390.71-18.2 390.71-13.45ZM430.81-27.3L430.81-27.3Q435.61-27.3 438.06-24.98 440.51-22.65 440.51-17.45L440.51-17.45 440.51 0 436.16 0 436.16-17.15Q436.16-23.6 430.16-23.6L430.16-23.6Q425.71-23.6 424.01-21.1 422.31-18.6 422.31-13.9L422.31-13.9 422.31 0 417.91 0 417.91-26.8 421.46-26.8 422.11-23.15 422.36-23.15Q423.66-25.25 425.96-26.28 428.26-27.3 430.81-27.3Z" opacity="1" transform="matrix(1,0,0,1,0,0)" fill="#e50404" class="wordmark-text-0" data-fill-palette-color="primary" id="text-0"></path></svg></g></svg></g><g transform="matrix(1,0,0,1,46.68638976,34.62476939529681)"><svg viewBox="0 0 151.05858048 7.413170272757007" height="7.413170272757007" width="151.05858048"><g transform="matrix(1,0,0,1,8,0)"><svg width="135.05858048" viewBox="0.93 -39.79 892.63 48.989999999999995" height="7.413170272757007" data-palette-color="#001f3f"><path d="M36.18 0L31.47-17.26 26.54 0 13.43 0 4.93-30.25 0.93-30.25 0.93-38.89 22.68-38.89 22.68-30.25 18.97-30.25 22.88-16.41 29.22-38.89 39.23-38.89 45.39-17.14 49.17-30.25 45.78-30.25 45.78-38.89 61.89-38.89 61.89-30.25 57.79-30.25 49.44 0 36.18 0ZM76.46 0.44L76.46 0.44Q71.92 0.44 68.58-1.25L68.58-1.25Q65.21-2.91 63.41-6.01 61.62-9.11 61.62-13.26L61.62-13.26Q61.62-17.36 63.38-20.39L63.38-20.39Q65.11-23.39 68.28-25.02 71.46-26.66 75.73-26.66L75.73-26.66Q79.66-26.66 82.66-25.12L82.66-25.12Q85.67-23.56 87.31-20.7 88.96-17.85 88.96-14.04L88.96-14.04Q88.96-12.72 88.57-11.55L88.57-11.55 73.36-11.55Q73.36-9.25 75.1-7.87 76.83-6.49 79.27-6.49L79.27-6.49Q81.13-6.49 83.35-7.14 85.57-7.79 87.81-9.16L87.81-9.16 88.23-9.01 88.23-2.44Q85.72-1 83.07-0.28 80.42 0.44 76.46 0.44ZM73.36-16.55L73.36-16.55 73.36-15.84 79.61-15.84 79.61-16.36Q79.61-18.09 78.82-19.35 78.02-20.61 76.46-20.61L76.46-20.61Q75.17-20.61 74.27-19.32 73.36-18.04 73.36-16.55ZM132.49 0L129.34-10.5 125.63 0 114.79 0 108.98-18.6 105.73-18.6 105.73-26.15 123.04-26.15 123.04-18.6 120.72-18.6 122.99-9.55 128.14-26.15 134.64-26.15 139.93-9.25 142.38-18.6 139.47-18.6 139.47-26.15 152.92-26.15 152.92-18.6 149.63-18.6 144.08 0 132.49 0ZM165.59-28.71L165.59-28.71Q162.54-28.71 160.56-30.15 158.58-31.59 158.58-34.3L158.58-34.3Q158.58-37.01 160.56-38.4 162.54-39.79 165.64-39.79L165.64-39.79Q168.74-39.79 170.68-38.43 172.62-37.06 172.62-34.3L172.62-34.3Q172.62-31.59 170.63-30.15 168.64-28.71 165.59-28.71ZM171.43-7.35L174.57-7.35 174.57 0 156.58 0 156.58-7.35 159.73-7.35 159.73-18.6 156.58-18.6 156.58-24.61 171.43-26.15 171.43-7.35ZM194.4-7.35L198.16-7.35 198.16 0 178.41 0 178.41-7.35 182.7-7.35 182.7-29.86 178.41-29.86 178.41-36.5 194.4-38.11 194.4-7.35ZM218.27-7.35L222.03-7.35 222.03 0 202.28 0 202.28-7.35 206.58-7.35 206.58-29.86 202.28-29.86 202.28-36.5 218.27-38.11 218.27-7.35ZM257.04 0.71L257.04 0.71Q255.03 0.71 253.62 0.42 252.2 0.12 250.99-0.54 249.78-1.2 248.42-2.25L248.42-2.25 247.56 0 239.68 0 239.68-11.89 247.51-11.89Q248.27-9.84 249.85-9 251.42-8.15 253.72-8.15L253.72-8.15Q255.13-8.15 256.13-8.73 257.13-9.3 257.13-10.25L257.13-10.25Q257.13-11.45 256.11-12.05 255.08-12.65 253.23-13.16L253.23-13.16Q250.86-13.79 248.94-14.5 247.03-15.21 245.51-15.97L245.51-15.97Q242.48-17.48 240.63-20.26 238.77-23.05 238.77-27.66L238.77-27.66Q238.77-31.2 240.31-33.91L240.31-33.91Q241.83-36.6 244.67-38.1 247.51-39.6 251.37-39.6L251.37-39.6Q256.08-39.6 258.82-36.6L258.82-36.6 260.06-38.89 267.07-38.89 267.07-27.25 259.57-27.25Q258.52-29.44 257.26-30.3 255.99-31.15 253.76-31.15L253.76-31.15Q252.08-31.15 251.15-30.55 250.22-29.96 250.22-28.91L250.22-28.91Q250.22-27.73 251.57-27.12L251.57-27.12Q252.89-26.49 255.33-25.95L255.33-25.95Q259.6-24.98 262.7-23.49L262.7-23.49Q265.73-22 267.55-19.27 269.36-16.55 269.36-12.26L269.36-12.26Q269.36-8.62 267.85-5.66L267.85-5.66Q266.31-2.71 263.49-1 260.67 0.71 257.04 0.71ZM285.3 0.44L285.3 0.44Q275.91 0.44 275.91-9.35L275.91-9.35 275.91-18.99 272-18.99 272-26.15 275.91-26.15 275.91-31.74 287.6-34.35 287.6-26.15 292.29-26.15 292.29-18.99 287.6-18.99 287.6-10.21Q287.6-9.11 288.43-8.37 289.26-7.64 290.5-7.64L290.5-7.64Q291.41-7.64 292.29-7.79L292.29-7.79 292.29-1Q289.06 0.44 285.3 0.44ZM317.38 1.49L321.14 1.49 321.14 9.2 304.25 9.2 304.25 1.49 309.2 1.49 310.55-0.76 299.14-18.6 296.04-18.6 296.04-26.15 314.35-26.15 314.35-18.6 311.94-18.6 315.99-11.11 319.7-18.6 317.04-18.6 317.04-26.15 330.69-26.15 330.69-18.6 328.05-18.6 317.38 1.49ZM350.49-7.35L354.24-7.35 354.24 0 334.49 0 334.49-7.35 338.79-7.35 338.79-29.86 334.49-29.86 334.49-36.5 350.49-38.11 350.49-7.35ZM372.5 0.44L372.5 0.44Q367.96 0.44 364.62-1.25L364.62-1.25Q361.25-2.91 359.45-6.01 357.66-9.11 357.66-13.26L357.66-13.26Q357.66-17.36 359.42-20.39L359.42-20.39Q361.15-23.39 364.33-25.02 367.5-26.66 371.77-26.66L371.77-26.66Q375.7-26.66 378.71-25.12L378.71-25.12Q381.71-23.56 383.36-20.7 385-17.85 385-14.04L385-14.04Q385-12.72 384.61-11.55L384.61-11.55 369.4-11.55Q369.4-9.25 371.14-7.87 372.87-6.49 375.31-6.49L375.31-6.49Q377.17-6.49 379.39-7.14 381.61-7.79 383.86-9.16L383.86-9.16 384.27-9.01 384.27-2.44Q381.76-1 379.11-0.28 376.46 0.44 372.5 0.44ZM369.4-16.55L369.4-16.55 369.4-15.84 375.65-15.84 375.65-16.36Q375.65-18.09 374.86-19.35 374.07-20.61 372.5-20.61L372.5-20.61Q371.21-20.61 370.31-19.32 369.4-18.04 369.4-16.55ZM436.42 0L431.7-17.26 426.77 0 413.66 0 405.17-30.25 401.16-30.25 401.16-38.89 422.91-38.89 422.91-30.25 419.2-30.25 423.11-16.41 429.46-38.89 439.47-38.89 445.62-17.14 449.4-30.25 446.01-30.25 446.01-38.89 462.12-38.89 462.12-30.25 458.02-30.25 449.67 0 436.42 0ZM482.87-7.35L482.87 0 465.66 0 465.66-7.35 468.76-7.35 468.76-29.86 465.66-29.86 465.66-36.5 480.5-38.11 480.5-22.34Q481.46-24.1 483.84-25.38 486.22-26.66 489.12-26.66L489.12-26.66Q493.37-26.66 495.54-24.16 497.72-21.66 497.72-17.14L497.72-17.14 497.72-7.35 500.82-7.35 500.82 0 485.95 0 485.95-15.94Q485.95-17.41 485.11-18.36 484.26-19.31 483.17-19.31L483.17-19.31Q481.92-19.31 481.21-18.46 480.5-17.6 480.5-16.16L480.5-16.16 480.5-7.35 482.87-7.35ZM512.31-28.71L512.31-28.71Q509.26-28.71 507.28-30.15 505.31-31.59 505.31-34.3L505.31-34.3Q505.31-37.01 507.28-38.4 509.26-39.79 512.36-39.79L512.36-39.79Q515.46-39.79 517.4-38.43 519.34-37.06 519.34-34.3L519.34-34.3Q519.34-31.59 517.36-30.15 515.37-28.71 512.31-28.71ZM518.15-7.35L521.3-7.35 521.3 0 503.3 0 503.3-7.35 506.45-7.35 506.45-18.6 503.3-18.6 503.3-24.61 518.15-26.15 518.15-7.35ZM541.12-7.35L544.88-7.35 544.88 0 525.13 0 525.13-7.35 529.43-7.35 529.43-29.86 525.13-29.86 525.13-36.5 541.12-38.11 541.12-7.35ZM563.14 0.44L563.14 0.44Q558.6 0.44 555.25-1.25L555.25-1.25Q551.88-2.91 550.09-6.01 548.29-9.11 548.29-13.26L548.29-13.26Q548.29-17.36 550.05-20.39L550.05-20.39Q551.79-23.39 554.96-25.02 558.13-26.66 562.41-26.66L562.41-26.66Q566.34-26.66 569.34-25.12L569.34-25.12Q572.34-23.56 573.99-20.7 575.64-17.85 575.64-14.04L575.64-14.04Q575.64-12.72 575.25-11.55L575.25-11.55 560.04-11.55Q560.04-9.25 561.77-7.87 563.5-6.49 565.95-6.49L565.95-6.49Q567.8-6.49 570.02-7.14 572.25-7.79 574.49-9.16L574.49-9.16 574.91-9.01 574.91-2.44Q572.39-1 569.74-0.28 567.09 0.44 563.14 0.44ZM560.04-16.55L560.04-16.55 560.04-15.84 566.29-15.84 566.29-16.36Q566.29-18.09 565.49-19.35 564.7-20.61 563.14-20.61L563.14-20.61Q561.84-20.61 560.94-19.32 560.04-18.04 560.04-16.55ZM618.41-8.74L622.24-8.74 622.24 0 601.05 0 601.05-8.74 604.78-8.74 604.78-15.89 594.55-30.25 591.8-30.25 591.8-38.84 612.6-38.84 612.6-30.25 610.4-30.25 614.84-23.75 618.33-30.25 614.79-30.25 614.79-38.84 630.35-38.84 630.35-30.25 625.95-30.25 618.41-17.21 618.41-8.74ZM644.65 0.44L644.65 0.44Q640.21 0.44 636.91-1.2L636.91-1.2Q633.57-2.81 631.71-5.93 629.85-9.06 629.85-13.35L629.85-13.35Q629.85-17.63 631.71-20.61L631.71-20.61Q633.57-23.61 636.91-25.13 640.26-26.66 644.65-26.66L644.65-26.66Q649.17-26.66 652.5-25.1 655.83-23.54 657.66-20.57 659.49-17.6 659.49-13.35L659.49-13.35Q659.49-9.06 657.66-5.93L657.66-5.93Q655.81-2.81 652.45-1.18 649.09 0.44 644.65 0.44ZM644.65-6.69L644.65-6.69Q646.26-6.69 647.04-8.28L647.04-8.28Q647.8-9.81 647.8-13.35L647.8-13.35Q647.8-16.6 647.05-18.05 646.31-19.51 644.65-19.51L644.65-19.51Q643.06-19.51 642.31-18.05 641.55-16.6 641.55-13.35L641.55-13.35Q641.55-9.89 642.33-8.28L642.33-8.28Q643.11-6.69 644.65-6.69ZM673.92 0.44L673.92 0.44Q666.06 0.44 666.06-9.4L666.06-9.4 666.06-18.6 662.91-18.6 662.91-25.2 677.75-26.66 677.75-9.4Q677.75-8.45 678.46-7.65 679.17-6.86 680.12-6.86L680.12-6.86Q681.22-6.86 681.84-7.6 682.46-8.35 682.46-9.45L682.46-9.45 682.46-18.6 680.12-18.6 680.12-25.2 694.16-26.66 694.16-7.35 697.31-7.35 697.31 0 682.46 0 682.46-3.81Q681.17-1.81 679.01-0.68 676.85 0.44 673.92 0.44ZM732.04 0.71L732.04 0.71Q730.04 0.71 728.63 0.42 727.21 0.12 726-0.54 724.79-1.2 723.43-2.25L723.43-2.25 722.57 0 714.69 0 714.69-11.89 722.52-11.89Q723.28-9.84 724.85-9 726.43-8.15 728.72-8.15L728.72-8.15Q730.14-8.15 731.14-8.73 732.14-9.3 732.14-10.25L732.14-10.25Q732.14-11.45 731.12-12.05 730.09-12.65 728.24-13.16L728.24-13.16Q725.87-13.79 723.95-14.5 722.03-15.21 720.52-15.97L720.52-15.97Q717.49-17.48 715.64-20.26 713.78-23.05 713.78-27.66L713.78-27.66Q713.78-31.2 715.32-33.91L715.32-33.91Q716.83-36.6 719.68-38.1 722.52-39.6 726.38-39.6L726.38-39.6Q731.09-39.6 733.83-36.6L733.83-36.6 735.07-38.89 742.08-38.89 742.08-27.25 734.58-27.25Q733.53-29.44 732.26-30.3 730.99-31.15 728.77-31.15L728.77-31.15Q727.09-31.15 726.16-30.55 725.23-29.96 725.23-28.91L725.23-28.91Q725.23-27.73 726.58-27.12L726.58-27.12Q727.89-26.49 730.34-25.95L730.34-25.95Q734.61-24.98 737.71-23.49L737.71-23.49Q740.74-22 742.55-19.27 744.37-16.55 744.37-12.26L744.37-12.26Q744.37-8.62 742.86-5.66L742.86-5.66Q741.32-2.71 738.5-1 735.68 0.71 732.04 0.71ZM797.47-16.6L797.47-16.6 797.47-7.06 800.87-7.06 800.87 0 785.78 0 785.78-16.65Q785.78-17.7 785.09-18.51 784.41-19.31 783.46-19.31L783.46-19.31Q781.68-19.31 781.21-17.53L781.21-17.53Q780.72-15.7 780.72-12.4L780.72-12.4 780.72 0 769 0 769-16.65Q769-17.7 768.33-18.51 767.66-19.31 766.71-19.31L766.71-19.31Q764.93-19.31 764.46-17.53L764.46-17.53Q763.98-15.7 763.98-12.4L763.98-12.4 763.98-7.06 764.02-7.06 764.02 0 748.77 0 748.77-7.06 752.31-7.06 752.31-18.6 748.77-18.6 748.77-25.2 763.98-26.66 763.98-23Q765.66-25 767.81-25.83 769.96-26.66 772.67-26.66L772.67-26.66Q778.21-26.66 779.92-21.95L779.92-21.95Q781.72-24.51 784.07-25.59 786.41-26.66 789.42-26.66L789.42-26.66Q797.47-26.66 797.47-16.6ZM812.58-28.71L812.58-28.71Q809.53-28.71 807.55-30.15 805.57-31.59 805.57-34.3L805.57-34.3Q805.57-37.01 807.55-38.4 809.53-39.79 812.63-39.79L812.63-39.79Q815.73-39.79 817.67-38.43 819.61-37.06 819.61-34.3L819.61-34.3Q819.61-31.59 817.62-30.15 815.63-28.71 812.58-28.71ZM818.42-7.35L821.57-7.35 821.57 0 803.57 0 803.57-7.35 806.72-7.35 806.72-18.6 803.57-18.6 803.57-24.61 818.42-26.15 818.42-7.35ZM841.39-7.35L845.15-7.35 845.15 0 825.4 0 825.4-7.35 829.69-7.35 829.69-29.86 825.4-29.86 825.4-36.5 841.39-38.11 841.39-7.35ZM863.41 0.44L863.41 0.44Q858.87 0.44 855.52-1.25L855.52-1.25Q852.15-2.91 850.36-6.01 848.56-9.11 848.56-13.26L848.56-13.26Q848.56-17.36 850.32-20.39L850.32-20.39Q852.05-23.39 855.23-25.02 858.4-26.66 862.67-26.66L862.67-26.66Q866.6-26.66 869.61-25.12L869.61-25.12Q872.61-23.56 874.26-20.7 875.91-17.85 875.91-14.04L875.91-14.04Q875.91-12.72 875.52-11.55L875.52-11.55 860.31-11.55Q860.31-9.25 862.04-7.87 863.77-6.49 866.21-6.49L866.21-6.49Q868.07-6.49 870.29-7.14 872.51-7.79 874.76-9.16L874.76-9.16 875.17-9.01 875.17-2.44Q872.66-1 870.01-0.28 867.36 0.44 863.41 0.44ZM860.31-16.55L860.31-16.55 860.31-15.84 866.56-15.84 866.56-16.36Q866.56-18.09 865.76-19.35 864.97-20.61 863.41-20.61L863.41-20.61Q862.11-20.61 861.21-19.32 860.31-18.04 860.31-16.55ZM893.56-39.79L893.56-32.5 891.5-13.6 881.25-13.55 879.2-32.5 879.2-39.79 893.56-39.79ZM886.35 0.81L886.35 0.81Q883.35 0.81 881.45-0.81L881.45-0.81Q879.54-2.47 879.54-5.2L879.54-5.2Q879.54-8.01 881.45-9.64L881.45-9.64Q883.4-11.3 886.3-11.3L886.3-11.3 886.35-11.3Q889.28-11.3 891.36-9.64L891.36-9.64Q893.36-8.01 893.36-5.2L893.36-5.2Q893.36-2.47 891.41-0.81L891.41-0.81Q889.41 0.81 886.35 0.81Z" opacity="1" transform="matrix(1,0,0,1,0,0)" fill="#001f3f" class="slogan-text-1" data-fill-palette-color="secondary" id="text-1"></path></svg></g></svg></g></svg></g></svg></g><g transform="matrix(1,0,0,1,71.36290285739449,0)"><svg viewBox="0 0 101.70555428521102 101.70555428521102" height="101.70555428521102" width="101.70555428521102"><g><svg></svg></g><g id="icon-0"><svg viewBox="0 0 101.70555428521102 101.70555428521102" height="101.70555428521102" width="101.70555428521102"><g><path d="M0 50.853c0-28.085 22.768-50.853 50.853-50.853 28.085 0 50.853 22.768 50.853 50.853 0 28.085-22.768 50.853-50.853 50.853-28.085 0-50.853-22.768-50.853-50.853zM50.853 99.179c26.69 0 48.327-21.637 48.326-48.326 0-26.69-21.637-48.327-48.326-48.327-26.69 0-48.327 21.637-48.327 48.327 0 26.69 21.637 48.327 48.327 48.326z" data-fill-palette-color="tertiary" fill="#dfa6b4" stroke="transparent"></path></g><g transform="matrix(1,0,0,1,23.502506122629843,22.02140958424009)"><svg viewBox="0 0 54.70054203995134 57.66273511673084" height="57.66273511673084" width="54.70054203995134"><g><svg xmlns="http://www.w3.org/2000/svg" xmlns:xlink="http://www.w3.org/1999/xlink" version="1.1" x="0" y="0" viewBox="3.850853754456544 1.2887264176133384 91.74311755454065 96.71127358238667" style="enable-background:new 0 0 100 100;" xml:space="preserve" height="57.66273511673084" width="54.70054203995134" class="icon-dxe-0" data-fill-palette-color="accent" id="dxe-0"></svg></g></svg></g></svg></g></svg></g><g></g></svg></g></svg></g><g><path d="M112.385 40.779A118.946 118.946 0 0 1 283.135 40.779L280.676 40.779A116.487 116.487 0 0 0 114.844 40.779L112.385 40.779M112.385 206.421A118.946 118.946 0 0 0 283.135 206.421L280.676 206.421A116.487 116.487 0 0 1 114.844 206.421L112.385 206.421" fill="#dfa6b4" stroke="transparent" data-fill-palette-color="tertiary"></path></g></svg></g><defs></defs><mask id="89ca0675-9e0f-4cb8-a9a1-ce72d1fcd7ad"><g id="SvgjsG2990"><svg viewBox="0 0 395.52 247.2" height="247.2" width="395.52"><g><svg></svg></g><g><svg viewBox="0 0 395.52 247.2" height="247.2" width="395.52"><g transform="matrix(1,0,0,1,78.81422221048591,47.215199999999996)"><svg viewBox="0 0 237.89155557902816 152.7696" height="152.7696" width="237.89155557902816"><g><svg viewBox="0 0 244.43135999999998 156.9693426223824" height="152.7696" width="237.89155557902816"><g transform="matrix(1,0,0,1,0,114.9314029543286)"><svg viewBox="0 0 244.43135999999998 42.03793966805381" height="42.03793966805381" width="244.43135999999998"><g id="SvgjsG2989"><svg viewBox="0 0 244.43135999999998 42.03793966805381" height="42.03793966805381" width="244.43135999999998" id="SvgjsSvg2988"><g><rect width="46.68638976" height="2.5261370958014573" y="37.06828598377459" fill="black"></rect><rect width="46.68638976" height="2.5261370958014573" y="37.06828598377459" x="197.74497024" fill="black"></rect></g><g><svg viewBox="0 0 244.43135999999998 28.01184506073802" height="28.01184506073802" width="244.43135999999998"><g transform="matrix(1,0,0,1,0,0)"><svg width="244.43135999999998" viewBox="4.25 -38 436.26 50" height="28.01184506073802" data-palette-color="#e50404"><path d="M33.65-27.3L33.65-27.3Q38.2-27.3 40.45-24.98 42.7-22.65 42.7-17.45L42.7-17.45 42.7 0 38.35 0 38.35-17.25Q38.35-23.6 32.9-23.6L32.9-23.6Q29-23.6 27.33-21.35 25.65-19.1 25.65-14.8L25.65-14.8 25.65 0 21.3 0 21.3-17.25Q21.3-23.6 15.8-23.6L15.8-23.6Q11.75-23.6 10.2-21.1 8.65-18.6 8.65-13.9L8.65-13.9 8.65 0 4.25 0 4.25-26.8 7.8-26.8 8.45-23.15 8.7-23.15Q9.95-25.25 12.08-26.28 14.2-27.3 16.6-27.3L16.6-27.3Q22.9-27.3 24.8-22.8L24.8-22.8 25.05-22.8Q26.4-25.1 28.73-26.2 31.05-27.3 33.65-27.3ZM57.6 0.1L46.8-26.8 51.5-26.8 57.3-11.55Q58.05-9.55 58.65-7.73 59.25-5.9 59.55-4.25L59.55-4.25 59.75-4.25Q60.05-5.5 60.7-7.53 61.35-9.55 62.05-11.6L62.05-11.6 67.5-26.8 72.25-26.8 60.7 3.7Q59.3 7.5 57.07 9.75 54.85 12 50.95 12L50.95 12Q49.75 12 48.85 11.88 47.95 11.75 47.3 11.6L47.3 11.6 47.3 8.1Q47.85 8.2 48.62 8.3 49.4 8.4 50.25 8.4L50.25 8.4Q52.55 8.4 53.97 7.1 55.4 5.8 56.2 3.65L56.2 3.65 57.6 0.1ZM93.95-7.4L93.95-7.4Q93.95-3.5 91.05-1.5 88.15 0.5 83.25 0.5L83.25 0.5Q80.45 0.5 78.42 0.05 76.4-0.4 74.84-1.2L74.84-1.2 74.84-5.2Q76.45-4.4 78.72-3.73 81-3.05 83.34-3.05L83.34-3.05Q86.7-3.05 88.2-4.13 89.7-5.2 89.7-7L89.7-7Q89.7-8 89.15-8.8 88.59-9.6 87.17-10.4 85.75-11.2 83.09-12.2L83.09-12.2Q80.5-13.2 78.65-14.2 76.8-15.2 75.8-16.6 74.8-18 74.8-20.2L74.8-20.2Q74.8-23.6 77.57-25.45 80.34-27.3 84.84-27.3L84.84-27.3Q87.3-27.3 89.42-26.83 91.55-26.35 93.4-25.5L93.4-25.5 91.9-22Q90.2-22.7 88.34-23.2 86.5-23.7 84.55-23.7L84.55-23.7Q81.84-23.7 80.42-22.83 79-21.95 79-20.45L79-20.45Q79-19.35 79.65-18.57 80.3-17.8 81.82-17.07 83.34-16.35 85.9-15.35L85.9-15.35Q88.45-14.4 90.25-13.4 92.05-12.4 93-10.98 93.95-9.55 93.95-7.4ZM109.39-3.1L109.39-3.1Q110.39-3.1 111.44-3.28 112.49-3.45 113.14-3.65L113.14-3.65 113.14-0.3Q112.44 0.05 111.14 0.28 109.84 0.5 108.64 0.5L108.64 0.5Q106.54 0.5 104.77-0.23 102.99-0.95 101.89-2.75 100.79-4.55 100.79-7.8L100.79-7.8 100.79-23.4 96.99-23.4 96.99-25.5 100.84-27.25 102.59-32.95 105.19-32.95 105.19-26.8 112.94-26.8 112.94-23.4 105.19-23.4 105.19-7.9Q105.19-5.45 106.37-4.28 107.54-3.1 109.39-3.1ZM120.74-36.85L120.74-36.85Q121.74-36.85 122.52-36.18 123.29-35.5 123.29-34.05L123.29-34.05Q123.29-32.65 122.52-31.95 121.74-31.25 120.74-31.25L120.74-31.25Q119.64-31.25 118.89-31.95 118.14-32.65 118.14-34.05L118.14-34.05Q118.14-35.5 118.89-36.18 119.64-36.85 120.74-36.85ZM118.49-26.8L122.89-26.8 122.89 0 118.49 0 118.49-26.8ZM142.14 0.5L142.14 0.5Q138.59 0.5 135.81-0.95 133.04-2.4 131.46-5.45 129.89-8.5 129.89-13.25L129.89-13.25Q129.89-18.2 131.54-21.3 133.19-24.4 136.01-25.85 138.84-27.3 142.44-27.3L142.44-27.3Q144.49-27.3 146.39-26.88 148.29-26.45 149.49-25.85L149.49-25.85 148.14-22.2Q146.94-22.65 145.34-23.05 143.74-23.45 142.34-23.45L142.34-23.45Q134.44-23.45 134.44-13.3L134.44-13.3Q134.44-8.45 136.36-5.88 138.29-3.3 142.09-3.3L142.09-3.3Q144.29-3.3 145.96-3.75 147.64-4.2 149.04-4.85L149.04-4.85 149.04-0.95Q147.69-0.25 146.06 0.13 144.44 0.5 142.14 0.5ZM191.68-13.45L191.68-13.45Q191.68-6.8 188.31-3.15 184.93 0.5 179.18 0.5L179.18 0.5Q175.63 0.5 172.86-1.13 170.08-2.75 168.48-5.88 166.88-9 166.88-13.45L166.88-13.45Q166.88-20.1 170.23-23.7 173.58-27.3 179.33-27.3L179.33-27.3Q182.98-27.3 185.76-25.68 188.53-24.05 190.11-20.98 191.68-17.9 191.68-13.45ZM171.43-13.45L171.43-13.45Q171.43-8.7 173.31-5.93 175.18-3.15 179.28-3.15L179.28-3.15Q183.33-3.15 185.23-5.93 187.13-8.7 187.13-13.45L187.13-13.45Q187.13-18.2 185.23-20.9 183.33-23.6 179.23-23.6L179.23-23.6Q175.13-23.6 173.28-20.9 171.43-18.2 171.43-13.45ZM209.38 0.5L209.38 0.5Q205.83 0.5 203.06-0.95 200.28-2.4 198.71-5.45 197.13-8.5 197.13-13.25L197.13-13.25Q197.13-18.2 198.78-21.3 200.43-24.4 203.26-25.85 206.08-27.3 209.68-27.3L209.68-27.3Q211.73-27.3 213.63-26.88 215.53-26.45 216.73-25.85L216.73-25.85 215.38-22.2Q214.18-22.65 212.58-23.05 210.98-23.45 209.58-23.45L209.58-23.45Q201.68-23.45 201.68-13.3L201.68-13.3Q201.68-8.45 203.61-5.88 205.53-3.3 209.33-3.3L209.33-3.3Q211.53-3.3 213.21-3.75 214.88-4.2 216.28-4.85L216.28-4.85 216.28-0.95Q214.93-0.25 213.31 0.13 211.68 0.5 209.38 0.5ZM232.98-27.3L232.98-27.3Q236.43-27.3 238.9-25.8 241.38-24.3 242.7-21.58 244.03-18.85 244.03-15.2L244.03-15.2 244.03-12.55 225.68-12.55Q225.78-8 228-5.63 230.23-3.25 234.23-3.25L234.23-3.25Q236.78-3.25 238.75-3.73 240.73-4.2 242.83-5.1L242.83-5.1 242.83-1.25Q240.78-0.35 238.78 0.08 236.78 0.5 234.03 0.5L234.03 0.5Q230.23 0.5 227.3-1.05 224.38-2.6 222.75-5.68 221.13-8.75 221.13-13.2L221.13-13.2Q221.13-17.6 222.6-20.75 224.08-23.9 226.75-25.6 229.43-27.3 232.98-27.3ZM232.93-23.7L232.93-23.7Q229.78-23.7 227.95-21.68 226.13-19.65 225.78-16.05L225.78-16.05 239.43-16.05Q239.38-19.45 237.83-21.58 236.28-23.7 232.93-23.7ZM260.98-27.25L260.98-27.25Q265.88-27.25 268.23-25.1 270.58-22.95 270.58-18.25L270.58-18.25 270.58 0 267.38 0 266.53-3.8 266.33-3.8Q264.58-1.6 262.65-0.55 260.73 0.5 257.33 0.5L257.33 0.5Q253.68 0.5 251.28-1.43 248.88-3.35 248.88-7.45L248.88-7.45Q248.88-11.45 252.03-13.63 255.18-15.8 261.73-16L261.73-16 266.28-16.15 266.28-17.75Q266.28-21.1 264.83-22.4 263.38-23.7 260.73-23.7L260.73-23.7Q258.63-23.7 256.73-23.08 254.83-22.45 253.18-21.65L253.18-21.65 251.83-24.95Q253.58-25.9 255.98-26.58 258.38-27.25 260.98-27.25ZM266.23-13.1L262.28-12.95Q257.28-12.75 255.35-11.35 253.43-9.95 253.43-7.4L253.43-7.4Q253.43-5.15 254.8-4.1 256.18-3.05 258.33-3.05L258.33-3.05Q261.73-3.05 263.98-4.93 266.23-6.8 266.23-10.7L266.23-10.7 266.23-13.1ZM291.77-27.3L291.77-27.3Q296.57-27.3 299.02-24.98 301.47-22.65 301.47-17.45L301.47-17.45 301.47 0 297.12 0 297.12-17.15Q297.12-23.6 291.12-23.6L291.12-23.6Q286.67-23.6 284.97-21.1 283.27-18.6 283.27-13.9L283.27-13.9 283.27 0 278.87 0 278.87-26.8 282.42-26.8 283.07-23.15 283.32-23.15Q284.62-25.25 286.92-26.28 289.22-27.3 291.77-27.3ZM340.22-7.4L340.22-7.4Q340.22-3.5 337.32-1.5 334.42 0.5 329.52 0.5L329.52 0.5Q326.72 0.5 324.69 0.05 322.67-0.4 321.12-1.2L321.12-1.2 321.12-5.2Q322.72-4.4 324.99-3.73 327.27-3.05 329.62-3.05L329.62-3.05Q332.97-3.05 334.47-4.13 335.97-5.2 335.97-7L335.97-7Q335.97-8 335.42-8.8 334.87-9.6 333.44-10.4 332.02-11.2 329.37-12.2L329.37-12.2Q326.77-13.2 324.92-14.2 323.07-15.2 322.07-16.6 321.07-18 321.07-20.2L321.07-20.2Q321.07-23.6 323.84-25.45 326.62-27.3 331.12-27.3L331.12-27.3Q333.57-27.3 335.69-26.83 337.82-26.35 339.67-25.5L339.67-25.5 338.17-22Q336.47-22.7 334.62-23.2 332.77-23.7 330.82-23.7L330.82-23.7Q328.12-23.7 326.69-22.83 325.27-21.95 325.27-20.45L325.27-20.45Q325.27-19.35 325.92-18.57 326.57-17.8 328.09-17.07 329.62-16.35 332.17-15.35L332.17-15.35Q334.72-14.4 336.52-13.4 338.32-12.4 339.27-10.98 340.22-9.55 340.22-7.4ZM356.87-27.25L356.87-27.25Q361.77-27.25 364.12-25.1 366.47-22.95 366.47-18.25L366.47-18.25 366.47 0 363.27 0 362.42-3.8 362.22-3.8Q360.47-1.6 358.54-0.55 356.62 0.5 353.22 0.5L353.22 0.5Q349.57 0.5 347.17-1.43 344.77-3.35 344.77-7.45L344.77-7.45Q344.77-11.45 347.92-13.63 351.07-15.8 357.62-16L357.62-16 362.17-16.15 362.17-17.75Q362.17-21.1 360.72-22.4 359.27-23.7 356.62-23.7L356.62-23.7Q354.52-23.7 352.62-23.08 350.72-22.45 349.07-21.65L349.07-21.65 347.72-24.95Q349.47-25.9 351.87-26.58 354.27-27.25 356.87-27.25ZM362.12-13.1L358.17-12.95Q353.17-12.75 351.24-11.35 349.32-9.95 349.32-7.4L349.32-7.4Q349.32-5.15 350.69-4.1 352.07-3.05 354.22-3.05L354.22-3.05Q357.62-3.05 359.87-4.93 362.12-6.8 362.12-10.7L362.12-10.7 362.12-13.1ZM379.16-38L379.16 0 374.76 0 374.76-38 379.16-38ZM410.96-13.45L410.96-13.45Q410.96-6.8 407.59-3.15 404.21 0.5 398.46 0.5L398.46 0.5Q394.91 0.5 392.14-1.13 389.36-2.75 387.76-5.88 386.16-9 386.16-13.45L386.16-13.45Q386.16-20.1 389.51-23.7 392.86-27.3 398.61-27.3L398.61-27.3Q402.26-27.3 405.04-25.68 407.81-24.05 409.39-20.98 410.96-17.9 410.96-13.45ZM390.71-13.45L390.71-13.45Q390.71-8.7 392.59-5.93 394.46-3.15 398.56-3.15L398.56-3.15Q402.61-3.15 404.51-5.93 406.41-8.7 406.41-13.45L406.41-13.45Q406.41-18.2 404.51-20.9 402.61-23.6 398.51-23.6L398.51-23.6Q394.41-23.6 392.56-20.9 390.71-18.2 390.71-13.45ZM430.81-27.3L430.81-27.3Q435.61-27.3 438.06-24.98 440.51-22.65 440.51-17.45L440.51-17.45 440.51 0 436.16 0 436.16-17.15Q436.16-23.6 430.16-23.6L430.16-23.6Q425.71-23.6 424.01-21.1 422.31-18.6 422.31-13.9L422.31-13.9 422.31 0 417.91 0 417.91-26.8 421.46-26.8 422.11-23.15 422.36-23.15Q423.66-25.25 425.96-26.28 428.26-27.3 430.81-27.3Z" opacity="1" transform="matrix(1,0,0,1,0,0)" fill="black" class="wordmark-text-0" id="SvgjsPath2987"></path></svg></g></svg></g><g transform="matrix(1,0,0,1,46.68638976,34.62476939529681)"><svg viewBox="0 0 151.05858048 7.413170272757007" height="7.413170272757007" width="151.05858048"><g transform="matrix(1,0,0,1,8,0)"><svg width="135.05858048" viewBox="0.93 -39.79 892.63 48.989999999999995" height="7.413170272757007" data-palette-color="#001f3f"><path d="M36.18 0L31.47-17.26 26.54 0 13.43 0 4.93-30.25 0.93-30.25 0.93-38.89 22.68-38.89 22.68-30.25 18.97-30.25 22.88-16.41 29.22-38.89 39.23-38.89 45.39-17.14 49.17-30.25 45.78-30.25 45.78-38.89 61.89-38.89 61.89-30.25 57.79-30.25 49.44 0 36.18 0ZM76.46 0.44L76.46 0.44Q71.92 0.44 68.58-1.25L68.58-1.25Q65.21-2.91 63.41-6.01 61.62-9.11 61.62-13.26L61.62-13.26Q61.62-17.36 63.38-20.39L63.38-20.39Q65.11-23.39 68.28-25.02 71.46-26.66 75.73-26.66L75.73-26.66Q79.66-26.66 82.66-25.12L82.66-25.12Q85.67-23.56 87.31-20.7 88.96-17.85 88.96-14.04L88.96-14.04Q88.96-12.72 88.57-11.55L88.57-11.55 73.36-11.55Q73.36-9.25 75.1-7.87 76.83-6.49 79.27-6.49L79.27-6.49Q81.13-6.49 83.35-7.14 85.57-7.79 87.81-9.16L87.81-9.16 88.23-9.01 88.23-2.44Q85.72-1 83.07-0.28 80.42 0.44 76.46 0.44ZM73.36-16.55L73.36-16.55 73.36-15.84 79.61-15.84 79.61-16.36Q79.61-18.09 78.82-19.35 78.02-20.61 76.46-20.61L76.46-20.61Q75.17-20.61 74.27-19.32 73.36-18.04 73.36-16.55ZM132.49 0L129.34-10.5 125.63 0 114.79 0 108.98-18.6 105.73-18.6 105.73-26.15 123.04-26.15 123.04-18.6 120.72-18.6 122.99-9.55 128.14-26.15 134.64-26.15 139.93-9.25 142.38-18.6 139.47-18.6 139.47-26.15 152.92-26.15 152.92-18.6 149.63-18.6 144.08 0 132.49 0ZM165.59-28.71L165.59-28.71Q162.54-28.71 160.56-30.15 158.58-31.59 158.58-34.3L158.58-34.3Q158.58-37.01 160.56-38.4 162.54-39.79 165.64-39.79L165.64-39.79Q168.74-39.79 170.68-38.43 172.62-37.06 172.62-34.3L172.62-34.3Q172.62-31.59 170.63-30.15 168.64-28.71 165.59-28.71ZM171.43-7.35L174.57-7.35 174.57 0 156.58 0 156.58-7.35 159.73-7.35 159.73-18.6 156.58-18.6 156.58-24.61 171.43-26.15 171.43-7.35ZM194.4-7.35L198.16-7.35 198.16 0 178.41 0 178.41-7.35 182.7-7.35 182.7-29.86 178.41-29.86 178.41-36.5 194.4-38.11 194.4-7.35ZM218.27-7.35L222.03-7.35 222.03 0 202.28 0 202.28-7.35 206.58-7.35 206.58-29.86 202.28-29.86 202.28-36.5 218.27-38.11 218.27-7.35ZM257.04 0.71L257.04 0.71Q255.03 0.71 253.62 0.42 252.2 0.12 250.99-0.54 249.78-1.2 248.42-2.25L248.42-2.25 247.56 0 239.68 0 239.68-11.89 247.51-11.89Q248.27-9.84 249.85-9 251.42-8.15 253.72-8.15L253.72-8.15Q255.13-8.15 256.13-8.73 257.13-9.3 257.13-10.25L257.13-10.25Q257.13-11.45 256.11-12.05 255.08-12.65 253.23-13.16L253.23-13.16Q250.86-13.79 248.94-14.5 247.03-15.21 245.51-15.97L245.51-15.97Q242.48-17.48 240.63-20.26 238.77-23.05 238.77-27.66L238.77-27.66Q238.77-31.2 240.31-33.91L240.31-33.91Q241.83-36.6 244.67-38.1 247.51-39.6 251.37-39.6L251.37-39.6Q256.08-39.6 258.82-36.6L258.82-36.6 260.06-38.89 267.07-38.89 267.07-27.25 259.57-27.25Q258.52-29.44 257.26-30.3 255.99-31.15 253.76-31.15L253.76-31.15Q252.08-31.15 251.15-30.55 250.22-29.96 250.22-28.91L250.22-28.91Q250.22-27.73 251.57-27.12L251.57-27.12Q252.89-26.49 255.33-25.95L255.33-25.95Q259.6-24.98 262.7-23.49L262.7-23.49Q265.73-22 267.55-19.27 269.36-16.55 269.36-12.26L269.36-12.26Q269.36-8.62 267.85-5.66L267.85-5.66Q266.31-2.71 263.49-1 260.67 0.71 257.04 0.71ZM285.3 0.44L285.3 0.44Q275.91 0.44 275.91-9.35L275.91-9.35 275.91-18.99 272-18.99 272-26.15 275.91-26.15 275.91-31.74 287.6-34.35 287.6-26.15 292.29-26.15 292.29-18.99 287.6-18.99 287.6-10.21Q287.6-9.11 288.43-8.37 289.26-7.64 290.5-7.64L290.5-7.64Q291.41-7.64 292.29-7.79L292.29-7.79 292.29-1Q289.06 0.44 285.3 0.44ZM317.38 1.49L321.14 1.49 321.14 9.2 304.25 9.2 304.25 1.49 309.2 1.49 310.55-0.76 299.14-18.6 296.04-18.6 296.04-26.15 314.35-26.15 314.35-18.6 311.94-18.6 315.99-11.11 319.7-18.6 317.04-18.6 317.04-26.15 330.69-26.15 330.69-18.6 328.05-18.6 317.38 1.49ZM350.49-7.35L354.24-7.35 354.24 0 334.49 0 334.49-7.35 338.79-7.35 338.79-29.86 334.49-29.86 334.49-36.5 350.49-38.11 350.49-7.35ZM372.5 0.44L372.5 0.44Q367.96 0.44 364.62-1.25L364.62-1.25Q361.25-2.91 359.45-6.01 357.66-9.11 357.66-13.26L357.66-13.26Q357.66-17.36 359.42-20.39L359.42-20.39Q361.15-23.39 364.33-25.02 367.5-26.66 371.77-26.66L371.77-26.66Q375.7-26.66 378.71-25.12L378.71-25.12Q381.71-23.56 383.36-20.7 385-17.85 385-14.04L385-14.04Q385-12.72 384.61-11.55L384.61-11.55 369.4-11.55Q369.4-9.25 371.14-7.87 372.87-6.49 375.31-6.49L375.31-6.49Q377.17-6.49 379.39-7.14 381.61-7.79 383.86-9.16L383.86-9.16 384.27-9.01 384.27-2.44Q381.76-1 379.11-0.28 376.46 0.44 372.5 0.44ZM369.4-16.55L369.4-16.55 369.4-15.84 375.65-15.84 375.65-16.36Q375.65-18.09 374.86-19.35 374.07-20.61 372.5-20.61L372.5-20.61Q371.21-20.61 370.31-19.32 369.4-18.04 369.4-16.55ZM436.42 0L431.7-17.26 426.77 0 413.66 0 405.17-30.25 401.16-30.25 401.16-38.89 422.91-38.89 422.91-30.25 419.2-30.25 423.11-16.41 429.46-38.89 439.47-38.89 445.62-17.14 449.4-30.25 446.01-30.25 446.01-38.89 462.12-38.89 462.12-30.25 458.02-30.25 449.67 0 436.42 0ZM482.87-7.35L482.87 0 465.66 0 465.66-7.35 468.76-7.35 468.76-29.86 465.66-29.86 465.66-36.5 480.5-38.11 480.5-22.34Q481.46-24.1 483.84-25.38 486.22-26.66 489.12-26.66L489.12-26.66Q493.37-26.66 495.54-24.16 497.72-21.66 497.72-17.14L497.72-17.14 497.72-7.35 500.82-7.35 500.82 0 485.95 0 485.95-15.94Q485.95-17.41 485.11-18.36 484.26-19.31 483.17-19.31L483.17-19.31Q481.92-19.31 481.21-18.46 480.5-17.6 480.5-16.16L480.5-16.16 480.5-7.35 482.87-7.35ZM512.31-28.71L512.31-28.71Q509.26-28.71 507.28-30.15 505.31-31.59 505.31-34.3L505.31-34.3Q505.31-37.01 507.28-38.4 509.26-39.79 512.36-39.79L512.36-39.79Q515.46-39.79 517.4-38.43 519.34-37.06 519.34-34.3L519.34-34.3Q519.34-31.59 517.36-30.15 515.37-28.71 512.31-28.71ZM518.15-7.35L521.3-7.35 521.3 0 503.3 0 503.3-7.35 506.45-7.35 506.45-18.6 503.3-18.6 503.3-24.61 518.15-26.15 518.15-7.35ZM541.12-7.35L544.88-7.35 544.88 0 525.13 0 525.13-7.35 529.43-7.35 529.43-29.86 525.13-29.86 525.13-36.5 541.12-38.11 541.12-7.35ZM563.14 0.44L563.14 0.44Q558.6 0.44 555.25-1.25L555.25-1.25Q551.88-2.91 550.09-6.01 548.29-9.11 548.29-13.26L548.29-13.26Q548.29-17.36 550.05-20.39L550.05-20.39Q551.79-23.39 554.96-25.02 558.13-26.66 562.41-26.66L562.41-26.66Q566.34-26.66 569.34-25.12L569.34-25.12Q572.34-23.56 573.99-20.7 575.64-17.85 575.64-14.04L575.64-14.04Q575.64-12.72 575.25-11.55L575.25-11.55 560.04-11.55Q560.04-9.25 561.77-7.87 563.5-6.49 565.95-6.49L565.95-6.49Q567.8-6.49 570.02-7.14 572.25-7.79 574.49-9.16L574.49-9.16 574.91-9.01 574.91-2.44Q572.39-1 569.74-0.28 567.09 0.44 563.14 0.44ZM560.04-16.55L560.04-16.55 560.04-15.84 566.29-15.84 566.29-16.36Q566.29-18.09 565.49-19.35 564.7-20.61 563.14-20.61L563.14-20.61Q561.84-20.61 560.94-19.32 560.04-18.04 560.04-16.55ZM618.41-8.74L622.24-8.74 622.24 0 601.05 0 601.05-8.74 604.78-8.74 604.78-15.89 594.55-30.25 591.8-30.25 591.8-38.84 612.6-38.84 612.6-30.25 610.4-30.25 614.84-23.75 618.33-30.25 614.79-30.25 614.79-38.84 630.35-38.84 630.35-30.25 625.95-30.25 618.41-17.21 618.41-8.74ZM644.65 0.44L644.65 0.44Q640.21 0.44 636.91-1.2L636.91-1.2Q633.57-2.81 631.71-5.93 629.85-9.06 629.85-13.35L629.85-13.35Q629.85-17.63 631.71-20.61L631.71-20.61Q633.57-23.61 636.91-25.13 640.26-26.66 644.65-26.66L644.65-26.66Q649.17-26.66 652.5-25.1 655.83-23.54 657.66-20.57 659.49-17.6 659.49-13.35L659.49-13.35Q659.49-9.06 657.66-5.93L657.66-5.93Q655.81-2.81 652.45-1.18 649.09 0.44 644.65 0.44ZM644.65-6.69L644.65-6.69Q646.26-6.69 647.04-8.28L647.04-8.28Q647.8-9.81 647.8-13.35L647.8-13.35Q647.8-16.6 647.05-18.05 646.31-19.51 644.65-19.51L644.65-19.51Q643.06-19.51 642.31-18.05 641.55-16.6 641.55-13.35L641.55-13.35Q641.55-9.89 642.33-8.28L642.33-8.28Q643.11-6.69 644.65-6.69ZM673.92 0.44L673.92 0.44Q666.06 0.44 666.06-9.4L666.06-9.4 666.06-18.6 662.91-18.6 662.91-25.2 677.75-26.66 677.75-9.4Q677.75-8.45 678.46-7.65 679.17-6.86 680.12-6.86L680.12-6.86Q681.22-6.86 681.84-7.6 682.46-8.35 682.46-9.45L682.46-9.45 682.46-18.6 680.12-18.6 680.12-25.2 694.16-26.66 694.16-7.35 697.31-7.35 697.31 0 682.46 0 682.46-3.81Q681.17-1.81 679.01-0.68 676.85 0.44 673.92 0.44ZM732.04 0.71L732.04 0.71Q730.04 0.71 728.63 0.42 727.21 0.12 726-0.54 724.79-1.2 723.43-2.25L723.43-2.25 722.57 0 714.69 0 714.69-11.89 722.52-11.89Q723.28-9.84 724.85-9 726.43-8.15 728.72-8.15L728.72-8.15Q730.14-8.15 731.14-8.73 732.14-9.3 732.14-10.25L732.14-10.25Q732.14-11.45 731.12-12.05 730.09-12.65 728.24-13.16L728.24-13.16Q725.87-13.79 723.95-14.5 722.03-15.21 720.52-15.97L720.52-15.97Q717.49-17.48 715.64-20.26 713.78-23.05 713.78-27.66L713.78-27.66Q713.78-31.2 715.32-33.91L715.32-33.91Q716.83-36.6 719.68-38.1 722.52-39.6 726.38-39.6L726.38-39.6Q731.09-39.6 733.83-36.6L733.83-36.6 735.07-38.89 742.08-38.89 742.08-27.25 734.58-27.25Q733.53-29.44 732.26-30.3 730.99-31.15 728.77-31.15L728.77-31.15Q727.09-31.15 726.16-30.55 725.23-29.96 725.23-28.91L725.23-28.91Q725.23-27.73 726.58-27.12L726.58-27.12Q727.89-26.49 730.34-25.95L730.34-25.95Q734.61-24.98 737.71-23.49L737.71-23.49Q740.74-22 742.55-19.27 744.37-16.55 744.37-12.26L744.37-12.26Q744.37-8.62 742.86-5.66L742.86-5.66Q741.32-2.71 738.5-1 735.68 0.71 732.04 0.71ZM797.47-16.6L797.47-16.6 797.47-7.06 800.87-7.06 800.87 0 785.78 0 785.78-16.65Q785.78-17.7 785.09-18.51 784.41-19.31 783.46-19.31L783.46-19.31Q781.68-19.31 781.21-17.53L781.21-17.53Q780.72-15.7 780.72-12.4L780.72-12.4 780.72 0 769 0 769-16.65Q769-17.7 768.33-18.51 767.66-19.31 766.71-19.31L766.71-19.31Q764.93-19.31 764.46-17.53L764.46-17.53Q763.98-15.7 763.98-12.4L763.98-12.4 763.98-7.06 764.02-7.06 764.02 0 748.77 0 748.77-7.06 752.31-7.06 752.31-18.6 748.77-18.6 748.77-25.2 763.98-26.66 763.98-23Q765.66-25 767.81-25.83 769.96-26.66 772.67-26.66L772.67-26.66Q778.21-26.66 779.92-21.95L779.92-21.95Q781.72-24.51 784.07-25.59 786.41-26.66 789.42-26.66L789.42-26.66Q797.47-26.66 797.47-16.6ZM812.58-28.71L812.58-28.71Q809.53-28.71 807.55-30.15 805.57-31.59 805.57-34.3L805.57-34.3Q805.57-37.01 807.55-38.4 809.53-39.79 812.63-39.79L812.63-39.79Q815.73-39.79 817.67-38.43 819.61-37.06 819.61-34.3L819.61-34.3Q819.61-31.59 817.62-30.15 815.63-28.71 812.58-28.71ZM818.42-7.35L821.57-7.35 821.57 0 803.57 0 803.57-7.35 806.72-7.35 806.72-18.6 803.57-18.6 803.57-24.61 818.42-26.15 818.42-7.35ZM841.39-7.35L845.15-7.35 845.15 0 825.4 0 825.4-7.35 829.69-7.35 829.69-29.86 825.4-29.86 825.4-36.5 841.39-38.11 841.39-7.35ZM863.41 0.44L863.41 0.44Q858.87 0.44 855.52-1.25L855.52-1.25Q852.15-2.91 850.36-6.01 848.56-9.11 848.56-13.26L848.56-13.26Q848.56-17.36 850.32-20.39L850.32-20.39Q852.05-23.39 855.23-25.02 858.4-26.66 862.67-26.66L862.67-26.66Q866.6-26.66 869.61-25.12L869.61-25.12Q872.61-23.56 874.26-20.7 875.91-17.85 875.91-14.04L875.91-14.04Q875.91-12.72 875.52-11.55L875.52-11.55 860.31-11.55Q860.31-9.25 862.04-7.87 863.77-6.49 866.21-6.49L866.21-6.49Q868.07-6.49 870.29-7.14 872.51-7.79 874.76-9.16L874.76-9.16 875.17-9.01 875.17-2.44Q872.66-1 870.01-0.28 867.36 0.44 863.41 0.44ZM860.31-16.55L860.31-16.55 860.31-15.84 866.56-15.84 866.56-16.36Q866.56-18.09 865.76-19.35 864.97-20.61 863.41-20.61L863.41-20.61Q862.11-20.61 861.21-19.32 860.31-18.04 860.31-16.55ZM893.56-39.79L893.56-32.5 891.5-13.6 881.25-13.55 879.2-32.5 879.2-39.79 893.56-39.79ZM886.35 0.81L886.35 0.81Q883.35 0.81 881.45-0.81L881.45-0.81Q879.54-2.47 879.54-5.2L879.54-5.2Q879.54-8.01 881.45-9.64L881.45-9.64Q883.4-11.3 886.3-11.3L886.3-11.3 886.35-11.3Q889.28-11.3 891.36-9.64L891.36-9.64Q893.36-8.01 893.36-5.2L893.36-5.2Q893.36-2.47 891.41-0.81L891.41-0.81Q889.41 0.81 886.35 0.81Z" opacity="1" transform="matrix(1,0,0,1,0,0)" fill="black" class="slogan-text-1" id="SvgjsPath2986"></path></svg></g></svg></g></svg></g></svg></g><g transform="matrix(1,0,0,1,71.36290285739449,0)"><svg viewBox="0 0 101.70555428521102 101.70555428521102" height="101.70555428521102" width="101.70555428521102"><g><svg></svg></g><g id="SvgjsG2985"><svg viewBox="0 0 101.70555428521102 101.70555428521102" height="101.70555428521102" width="101.70555428521102"><g><path d="M0 50.853c0-28.085 22.768-50.853 50.853-50.853 28.085 0 50.853 22.768 50.853 50.853 0 28.085-22.768 50.853-50.853 50.853-28.085 0-50.853-22.768-50.853-50.853zM50.853 99.179c26.69 0 48.327-21.637 48.326-48.326 0-26.69-21.637-48.327-48.326-48.327-26.69 0-48.327 21.637-48.327 48.327 0 26.69 21.637 48.327 48.327 48.326z" fill="black" stroke="transparent"></path></g><g transform="matrix(1,0,0,1,23.502506122629843,22.02140958424009)"><svg viewBox="0 0 54.70054203995134 57.66273511673084" height="57.66273511673084" width="54.70054203995134"><g><svg xmlns="http://www.w3.org/2000/svg" xmlns:xlink="http://www.w3.org/1999/xlink" version="1.1" x="0" y="0" viewBox="3.850853754456544 1.2887264176133384 91.74311755454065 96.71127358238667" style="enable-background:new 0 0 100 100;" xml:space="preserve" height="57.66273511673084" width="54.70054203995134" class="icon-dxe-0" data-fill-palette-color="accent" id="SvgjsSvg2984"><g fill="white"><polygon points="46,52.8 22.2,98 24.2,98 52.5,59.6  " fill="white"></polygon><polygon points="52.6,52.8 76.4,98 74.4,98 46.1,59.6  " fill="white"></polygon><path d="M82.1 9.5C83.3 7.4 82.8 4.8 80.9 3.7S76.5 3.4 75.3 5.6L46.8 54.8C45.6 56.9 46.1 59.5 48 60.6S52.4 60.9 53.6 58.7z" fill="white"></path><path d="M27.5 28.6C26.9 27.5 27.9 25.8 29.8 24.7S33.7 23.6 34.3 24.6L48.6 49.2C49.2 50.3 48.2 52 46.3 53.1S42.4 54.2 41.8 53.2z" fill="white"></path><path d="M31.8 35.9C31.2 34.8 32.2 33.1 34.1 32S38 30.9 38.6 31.9L52.9 56.5C53.5 57.6 52.5 59.3 50.6 60.4S46.7 61.5 46.1 60.5z" fill="white"></path><path d="M79.7 5.8C79 5.4 78 5.9 77.5 6.8 76.9 7.8 77 8.9 77.7 9.3L93 18.4C93.7 18.8 94.7 18.3 95.2 17.4 95.8 16.4 95.7 15.3 95 14.9z" fill="white"></path><path d="M75.1 13.7C74.5 13.3 73.5 13.8 72.9 14.7 72.3 15.7 72.4 16.8 73 17.1L88.1 26.1C88.7 26.5 89.7 26 90.3 25.1 90.9 24.1 90.8 23 90.2 22.7z" fill="white"></path><path d="M70.2 21.5C69.5 21.1 68.5 21.6 68 22.5 67.4 23.5 67.5 24.6 68.2 25L83.6 34.2C84.3 34.6 85.3 34.1 85.8 33.2 86.4 32.2 86.3 31.1 85.6 30.7z" fill="white"></path><path d="M65.4 29.4C64.7 29 63.7 29.5 63.2 30.4 62.6 31.4 62.7 32.5 63.4 32.9L78.8 42C79.5 42.4 80.5 41.9 81 41 81.6 40 81.5 38.9 80.8 38.5z" fill="white"></path><path d="M25.8 30.3C18.2 30.3 12 24.1 12 16.5S18.2 2.6 25.8 2.6 39.6 8.8 39.6 16.4 33.5 30.3 25.8 30.3M25.8 8C21.1 8 17.3 11.8 17.3 16.5S21.1 25 25.8 25 34.3 21.2 34.3 16.5 30.5 8 25.8 8" fill="white"></path><circle class="" cx="49.3" cy="55" r="2.8" fill="white"></circle><path d="M12.9 13.8S10.5 5.1 6.3 4.3 4 0.7 6.8 1.4C6.8 1.4 13.8 3 17 9.3" fill="white"></path></g></svg></g></svg></g></svg></g></svg></g><g></g></svg></g></svg></g><g><path d="M112.385 40.779A118.946 118.946 0 0 1 283.135 40.779L280.676 40.779A116.487 116.487 0 0 0 114.844 40.779L112.385 40.779M112.385 206.421A118.946 118.946 0 0 0 283.135 206.421L280.676 206.421A116.487 116.487 0 0 1 114.844 206.421L112.385 206.421" fill="black" stroke="transparent"></path></g></svg></g><defs><mask></mask></defs></svg><rect width="395.52" height="247.2" fill="black" stroke="none" visibility="hidden"></rect></g></mask><linearGradient x1="0" x2="1" y1="0.5" y2="0.5" id="7bcf8b64-df7d-417b-bf63-60081f6dbfec"><stop stop-color="#f00b51" offset="0"></stop><stop stop-color="#730062" offset="1"></stop></linearGradient><rect width="395.52" height="247.2" fill="url(#7bcf8b64-df7d-417b-bf63-60081f6dbfec)" mask="url(#89ca0675-9e0f-4cb8-a9a1-ce72d1fcd7ad)" data-fill-palette-color="accent"></rect></svg><rect width="395.52" height="247.2" fill="none" stroke="none" visibility="hidden"></rect></g></svg></g></svg>